<svg xmlns="http://www.w3.org/2000/svg" version="1.1" xmlns:xlink="http://www.w3.org/1999/xlink" xmlns:svgjs="http://svgjs.dev/svgjs" width="1440" height="560" preserveAspectRatio="none" viewBox="0 0 1440 560"><g mask="url(&quot;#SvgjsMask1061&quot;)" fill="none"><rect width="1440" height="560" x="0" y="0" fill="rgba(4, 21, 98, 1)"></rect><path d="M0,339.574C61.681,324.652,115.854,297.118,172.264,268.048C235.073,235.68,310.195,218.361,349.35,159.543C390.584,97.601,403.616,16.955,387.819,-55.76C372.446,-126.525,320.283,-182.901,264.838,-229.484C215.085,-271.285,147.709,-276.456,89.874,-306.082C14.48,-344.703,-41.88,-437.925,-126.199,-429.795C-208.918,-421.819,-257.253,-332.766,-308.867,-267.635C-358.49,-205.016,-403.766,-138.672,-419.05,-60.25C-434.82,20.666,-428.829,105.235,-396.3,180.984C-363.334,257.751,-313.255,335.699,-235.689,366.739C-160.749,396.728,-78.455,358.554,0,339.574" fill="#031253"></path><path d="M1440 866.316C1496.99 862.3969999999999 1547.914 833.434 1594.285 800.073 1638.768 768.0699999999999 1673.479 726.646 1700.4470000000001 678.942 1729.472 627.599 1763.808 573.028 1755.657 514.615 1747.498 456.146 1691.491 419.796 1657.544 371.497 1618.935 316.56600000000003 1602.401 241.372 1542.412 211.216 1480.091 179.887 1398.13 176.25599999999997 1337.394 210.55700000000002 1278.02 244.089 1281.927 332.808 1236.72 383.85699999999997 1190.717 435.805 1099.378 442.677 1074.481 507.446 1049.336 572.859 1074.138 650.697 1111.308 710.108 1146.588 766.499 1211.369 793.72 1271.448 822.2719999999999 1324.981 847.713 1380.869 870.3820000000001 1440 866.316" fill="#051871"></path></g><defs><mask id="SvgjsMask1061"><rect width="1440" height="560" fill="#ffffff"></rect></mask></defs></svg>