<svg xmlns="http://www.w3.org/2000/svg" version="1.1" xmlns:xlink="http://www.w3.org/1999/xlink" xmlns:svgjs="http://svgjs.dev/svgjs" width="1440" height="560" preserveAspectRatio="none" viewBox="0 0 1440 560"><g mask="url(&quot;#SvgjsMask1057&quot;)" fill="none"><rect width="1440" height="560" x="0" y="0" fill="rgba(4, 21, 98, 1)"></rect><path d="M0,658.593C120.624,642.547,228.243,576.911,317.842,494.572C397.861,421.038,445.287,322.033,478.751,218.638C509.297,124.258,500.052,27.126,501.237,-72.067C502.659,-191.041,544.822,-317.817,486.401,-421.469C425.058,-530.305,302.4,-587.754,185.597,-632.086C61.829,-679.062,-71.342,-712.094,-200.282,-682.097C-332.838,-651.258,-464.411,-580.139,-535.783,-464.259C-604.268,-353.066,-553.302,-211.472,-569.924,-81.943C-586.206,44.939,-667.825,165.892,-632.424,288.818C-595.471,417.134,-492.539,519.638,-377.266,587.037C-264.486,652.979,-129.502,675.82,0,658.593" fill="#031253"></path><path d="M1440 1148.716C1556.03 1143.626 1676.233 1142.4 1774.475 1080.452 1873.1109999999999 1018.256 1939.563 916.0989999999999 1981.475 807.283 2021.7849999999999 702.627 2032.594 587.603 2006.2939999999999 478.579 1981.344 375.153 1897.722 303.08 1838.519 214.68099999999998 1769.403 111.48000000000002 1749.8519999999999-54.83699999999999 1629.225-84.44299999999998 1507.199-114.39200000000005 1407.911 18.462999999999965 1299.78 82.45600000000002 1218.769 130.399 1148.243 184.635 1074.882 243.623 983.865 316.807 858.277 361.12 817.233 470.46 774.387 584.601 808.794 714.295 856.005 826.701 904.157 941.346 977.2280000000001 1050.609 1086.118 1110.6509999999998 1192.16 1169.1219999999998 1319.022 1154.0230000000001 1440 1148.716" fill="#051871"></path></g><defs><mask id="SvgjsMask1057"><rect width="1440" height="560" fill="#ffffff"></rect></mask></defs></svg>